<mxfile host="app.diagrams.net" agent="Mozilla/5.0 (Windows NT 10.0; Win64; x64) AppleWebKit/537.36 (KHTML, like Gecko) Chrome/139.0.0.0 Safari/537.36" version="28.1.2">
  <diagram name="Página-1" id="vnakOcCpEftvTP731UfS">
    <mxGraphModel dx="1869" dy="1007" grid="1" gridSize="10" guides="1" tooltips="1" connect="1" arrows="1" fold="1" page="1" pageScale="1" pageWidth="827" pageHeight="1169" math="0" shadow="0">
      <root>
        <mxCell id="0" />
        <mxCell id="1" parent="0" />
        <mxCell id="Xmfd9GT0qH7o-wXvTIa7-1" value="&lt;div style=&quot;text-align: center;&quot;&gt;&lt;b style=&quot;background-color: transparent; color: light-dark(rgb(0, 0, 0), rgb(255, 255, 255));&quot;&gt;Admin&lt;/b&gt;&lt;/div&gt;&lt;div style=&quot;text-align: center;&quot;&gt;&lt;span style=&quot;background-color: transparent; color: light-dark(rgb(0, 0, 0), rgb(255, 255, 255));&quot;&gt;—&lt;/span&gt;&lt;/div&gt;name: String" style="shape=rectangle;whiteSpace=wrap;html=1;rounded=0;strokeWidth=1;fillColor=#dae8fc;strokeColor=#6c8ebf;shadow=1;glass=0;spacingLeft=10;spacingRight=10;align=left;" vertex="1" parent="1">
          <mxGeometry x="400" y="240" width="100" height="90" as="geometry" />
        </mxCell>
        <mxCell id="Xmfd9GT0qH7o-wXvTIa7-2" value="&lt;div style=&quot;text-align: center;&quot;&gt;&lt;b style=&quot;background-color: transparent; color: light-dark(rgb(0, 0, 0), rgb(255, 255, 255));&quot;&gt;AccountHolder&lt;/b&gt;&lt;/div&gt;&lt;div style=&quot;text-align: center;&quot;&gt;&lt;span style=&quot;background-color: transparent; color: light-dark(rgb(0, 0, 0), rgb(255, 255, 255));&quot;&gt;—&lt;/span&gt;&lt;/div&gt;name: String&lt;br&gt;dateOfBirth: LocalDate&lt;br&gt;primaryAddress: Address&lt;br&gt;mailingAddress: Address?" style="shape=rectangle;whiteSpace=wrap;html=1;rounded=0;strokeWidth=1;fillColor=#dae8fc;strokeColor=#6c8ebf;spacingLeft=10;spacingRight=10;labelPosition=center;verticalLabelPosition=middle;align=left;verticalAlign=middle;" vertex="1" parent="1">
          <mxGeometry x="330" y="365" width="170" height="140" as="geometry" />
        </mxCell>
        <mxCell id="Xmfd9GT0qH7o-wXvTIa7-3" value="&lt;div style=&quot;text-align: center;&quot;&gt;&lt;b style=&quot;background-color: transparent; color: light-dark(rgb(0, 0, 0), rgb(255, 255, 255));&quot;&gt;ThirdParty&lt;/b&gt;&lt;/div&gt;&lt;div style=&quot;&quot;&gt;—&lt;span style=&quot;background-color: transparent; color: light-dark(rgb(0, 0, 0), rgb(255, 255, 255));&quot;&gt;—&lt;/span&gt;&lt;span style=&quot;background-color: transparent; color: light-dark(rgb(0, 0, 0), rgb(255, 255, 255));&quot;&gt;—&lt;/span&gt;&lt;span style=&quot;background-color: transparent; color: light-dark(rgb(0, 0, 0), rgb(255, 255, 255));&quot;&gt;—&lt;/span&gt;&lt;span style=&quot;background-color: transparent; color: light-dark(rgb(0, 0, 0), rgb(255, 255, 255));&quot;&gt;—&lt;/span&gt;&lt;span style=&quot;background-color: transparent; color: light-dark(rgb(0, 0, 0), rgb(255, 255, 255));&quot;&gt;—&lt;/span&gt;&lt;span style=&quot;background-color: transparent; color: light-dark(rgb(0, 0, 0), rgb(255, 255, 255));&quot;&gt;—&lt;/span&gt;&lt;span style=&quot;background-color: transparent; color: light-dark(rgb(0, 0, 0), rgb(255, 255, 255));&quot;&gt;—&lt;/span&gt;&lt;span style=&quot;background-color: transparent; color: light-dark(rgb(0, 0, 0), rgb(255, 255, 255));&quot;&gt;—&lt;/span&gt;&lt;/div&gt;name: String&lt;br&gt;hashedKey: String" style="shape=rectangle;whiteSpace=wrap;html=1;rounded=0;strokeWidth=1;fillColor=#dae8fc;strokeColor=#6c8ebf;align=left;spacingLeft=10;spacingRight=10;" vertex="1" parent="1">
          <mxGeometry x="520" y="610" width="130" height="110" as="geometry" />
        </mxCell>
        <mxCell id="Xmfd9GT0qH7o-wXvTIa7-4" value="&lt;div style=&quot;text-align: center;&quot;&gt;&lt;b style=&quot;background-color: transparent; color: light-dark(rgb(0, 0, 0), rgb(255, 255, 255));&quot;&gt;Address&lt;/b&gt;&lt;/div&gt;—&lt;br&gt;street: String&lt;br&gt;city: String&lt;br&gt;country: String" style="shape=rectangle;whiteSpace=wrap;html=1;rounded=0;strokeWidth=1;fillColor=#fff2cc;strokeColor=#d6b656;align=left;spacingLeft=10;spacingRight=10;" vertex="1" parent="1">
          <mxGeometry x="365" y="600" width="100" height="120" as="geometry" />
        </mxCell>
        <mxCell id="Xmfd9GT0qH7o-wXvTIa7-5" value="&lt;div style=&quot;text-align: center;&quot;&gt;&lt;b style=&quot;background-color: transparent; color: light-dark(rgb(0, 0, 0), rgb(255, 255, 255));&quot;&gt;«abstract» Account&lt;/b&gt;&lt;/div&gt;&lt;div style=&quot;text-align: center;&quot;&gt;&lt;span style=&quot;background-color: transparent; color: light-dark(rgb(0, 0, 0), rgb(255, 255, 255));&quot;&gt;—&lt;/span&gt;&lt;/div&gt;id: Long&lt;br&gt;balance: Money&lt;br&gt;secretKey: String&lt;br&gt;creationDate: LocalDate&lt;br&gt;status: AccountStatus&lt;br&gt;penaltyFee: Money = 40&lt;br&gt;primaryOwner: AccountHolder (1)&lt;br&gt;secondaryOwner: AccountHolder (0..1)" style="shape=rectangle;whiteSpace=wrap;html=1;rounded=0;strokeWidth=1;fillColor=#e1d5e7;strokeColor=#9673a6;align=left;labelPosition=center;verticalLabelPosition=middle;verticalAlign=middle;spacingLeft=10;spacingRight=10;" vertex="1" parent="1">
          <mxGeometry x="650" y="330" width="230" height="210" as="geometry" />
        </mxCell>
        <mxCell id="Xmfd9GT0qH7o-wXvTIa7-6" value="&lt;div style=&quot;text-align: center;&quot;&gt;&lt;b style=&quot;background-color: transparent; color: light-dark(rgb(0, 0, 0), rgb(255, 255, 255));&quot;&gt;«enum»&amp;nbsp;&lt;/b&gt;&lt;/div&gt;&lt;div&gt;&lt;div style=&quot;text-align: center;&quot;&gt;&lt;b style=&quot;background-color: transparent; color: light-dark(rgb(0, 0, 0), rgb(255, 255, 255));&quot;&gt;AccountStatus&lt;/b&gt;&lt;/div&gt;—&lt;span style=&quot;background-color: transparent; color: light-dark(rgb(0, 0, 0), rgb(255, 255, 255));&quot;&gt;—&lt;/span&gt;&lt;span style=&quot;background-color: transparent; color: light-dark(rgb(0, 0, 0), rgb(255, 255, 255));&quot;&gt;—&lt;/span&gt;&lt;span style=&quot;background-color: transparent; color: light-dark(rgb(0, 0, 0), rgb(255, 255, 255));&quot;&gt;—&lt;/span&gt;&lt;span style=&quot;background-color: transparent; color: light-dark(rgb(0, 0, 0), rgb(255, 255, 255));&quot;&gt;—&lt;/span&gt;&lt;span style=&quot;background-color: transparent; color: light-dark(rgb(0, 0, 0), rgb(255, 255, 255));&quot;&gt;—&lt;/span&gt;&lt;span style=&quot;background-color: transparent; color: light-dark(rgb(0, 0, 0), rgb(255, 255, 255));&quot;&gt;—&lt;/span&gt;&lt;br&gt;FROZEN&lt;/div&gt;&lt;div&gt;&lt;br&gt;ACTIVE&lt;/div&gt;" style="shape=rectangle;whiteSpace=wrap;html=1;rounded=0;strokeWidth=1;fillColor=#f8cecc;strokeColor=#b85450;align=left;spacingLeft=10;spacingRight=10;" vertex="1" parent="1">
          <mxGeometry x="730" y="610" width="110" height="110" as="geometry" />
        </mxCell>
        <mxCell id="Xmfd9GT0qH7o-wXvTIa7-7" value="&lt;div style=&quot;text-align: center;&quot;&gt;&lt;b style=&quot;background-color: transparent; color: light-dark(rgb(0, 0, 0), rgb(255, 255, 255));&quot;&gt;Checking&lt;/b&gt;&lt;/div&gt;—&lt;br&gt;minimumBalance: Money = 250&lt;br&gt;monthlyMaintenanceFee: Money = 12" style="shape=rectangle;whiteSpace=wrap;html=1;rounded=0;strokeWidth=1;fillColor=#d5e8d4;strokeColor=#82b366;align=left;spacingLeft=10;spacingRight=10;" vertex="1" parent="1">
          <mxGeometry x="1000" y="220" width="230" height="110" as="geometry" />
        </mxCell>
        <mxCell id="Xmfd9GT0qH7o-wXvTIa7-8" value="&lt;div style=&quot;text-align: center;&quot;&gt;&lt;b style=&quot;background-color: transparent; color: light-dark(rgb(0, 0, 0), rgb(255, 255, 255));&quot;&gt;StudentChecking&lt;/b&gt;&lt;/div&gt;&lt;div style=&quot;text-align: center;&quot;&gt;&lt;span style=&quot;background-color: transparent; color: light-dark(rgb(0, 0, 0), rgb(255, 255, 255));&quot;&gt;—&lt;/span&gt;&lt;/div&gt;(no minimumBalance)&lt;br&gt;(no monthlyMaintenanceFee)" style="shape=rectangle;whiteSpace=wrap;html=1;rounded=0;strokeWidth=1;fillColor=#d5e8d4;strokeColor=#82b366;spacingLeft=10;spacingRight=10;align=left;" vertex="1" parent="1">
          <mxGeometry x="1000" y="370" width="180" height="110" as="geometry" />
        </mxCell>
        <mxCell id="Xmfd9GT0qH7o-wXvTIa7-9" value="&lt;div style=&quot;text-align: center;&quot;&gt;&lt;b style=&quot;background-color: transparent; color: light-dark(rgb(0, 0, 0), rgb(255, 255, 255));&quot;&gt;Savings&lt;/b&gt;&lt;/div&gt;—&lt;br&gt;minimumBalance: Money (default 1000, min 100)&lt;br&gt;interestRate: BigDecimal (default 0.0025, max 0.5)" style="shape=rectangle;whiteSpace=wrap;html=1;rounded=0;strokeWidth=1;fillColor=#d5e8d4;strokeColor=#82b366;spacingLeft=10;spacingRight=10;align=left;" vertex="1" parent="1">
          <mxGeometry x="1000" y="530" width="300" height="120" as="geometry" />
        </mxCell>
        <mxCell id="Xmfd9GT0qH7o-wXvTIa7-10" value="&lt;div style=&quot;text-align: center;&quot;&gt;&lt;b style=&quot;background-color: transparent; color: light-dark(rgb(0, 0, 0), rgb(255, 255, 255));&quot;&gt;CreditCard&lt;/b&gt;&lt;/div&gt;—&lt;br&gt;creditLimit: Money (default 100, max 100000)&lt;br&gt;interestRate: BigDecimal (default 0.2, min 0.1)&lt;br&gt;penaltyFee: Money" style="shape=rectangle;whiteSpace=wrap;html=1;rounded=0;strokeWidth=1;fillColor=#d5e8d4;strokeColor=#82b366;align=left;spacingLeft=10;spacingRight=10;" vertex="1" parent="1">
          <mxGeometry x="950" y="720" width="270" height="130" as="geometry" />
        </mxCell>
        <mxCell id="Xmfd9GT0qH7o-wXvTIa7-11" value="&lt;b&gt;Regla de creación&lt;/b&gt;&lt;br/&gt;Si AccountHolder.age &amp;lt; 24 ⇒ StudentChecking, en caso contrario Checking" style="shape=note;whiteSpace=wrap;html=1;rounded=0;strokeWidth=1;size=20;fillColor=#fff2cc;strokeColor=#d6b656;" vertex="1" parent="1">
          <mxGeometry x="610" y="230" width="360" height="80" as="geometry" />
        </mxCell>
        <mxCell id="Xmfd9GT0qH7o-wXvTIa7-12" value="" style="endArrow=block;endFill=0;strokeWidth=1;" edge="1" parent="1" source="Xmfd9GT0qH7o-wXvTIa7-8" target="Xmfd9GT0qH7o-wXvTIa7-5">
          <mxGeometry relative="1" as="geometry" />
        </mxCell>
        <mxCell id="Xmfd9GT0qH7o-wXvTIa7-13" value="" style="endArrow=block;endFill=0;strokeWidth=1;" edge="1" parent="1" source="Xmfd9GT0qH7o-wXvTIa7-7" target="Xmfd9GT0qH7o-wXvTIa7-5">
          <mxGeometry relative="1" as="geometry" />
        </mxCell>
        <mxCell id="Xmfd9GT0qH7o-wXvTIa7-14" value="" style="endArrow=block;endFill=0;strokeWidth=1;" edge="1" parent="1" source="Xmfd9GT0qH7o-wXvTIa7-9" target="Xmfd9GT0qH7o-wXvTIa7-5">
          <mxGeometry relative="1" as="geometry" />
        </mxCell>
        <mxCell id="Xmfd9GT0qH7o-wXvTIa7-15" value="" style="endArrow=block;endFill=0;strokeWidth=1;" edge="1" parent="1" source="Xmfd9GT0qH7o-wXvTIa7-10" target="Xmfd9GT0qH7o-wXvTIa7-5">
          <mxGeometry relative="1" as="geometry" />
        </mxCell>
        <mxCell id="Xmfd9GT0qH7o-wXvTIa7-16" value="primaryOwner (1)" style="endArrow=none;strokeWidth=1;" edge="1" parent="1" source="Xmfd9GT0qH7o-wXvTIa7-5" target="Xmfd9GT0qH7o-wXvTIa7-2">
          <mxGeometry relative="1" as="geometry" />
        </mxCell>
        <mxCell id="Xmfd9GT0qH7o-wXvTIa7-17" value="secondaryOwner (0..1)" style="endArrow=none;dashed=1;strokeWidth=1;" edge="1" parent="1" source="Xmfd9GT0qH7o-wXvTIa7-5" target="Xmfd9GT0qH7o-wXvTIa7-2">
          <mxGeometry relative="1" as="geometry" />
        </mxCell>
        <mxCell id="Xmfd9GT0qH7o-wXvTIa7-18" value="primaryAddress (1)" style="endArrow=diamond;endFill=1;strokeWidth=1;" edge="1" parent="1" source="Xmfd9GT0qH7o-wXvTIa7-2" target="Xmfd9GT0qH7o-wXvTIa7-4">
          <mxGeometry relative="1" as="geometry" />
        </mxCell>
        <mxCell id="Xmfd9GT0qH7o-wXvTIa7-19" value="mailingAddress (0..1)" style="endArrow=diamond;endFill=0;dashed=1;strokeWidth=1;" edge="1" parent="1" source="Xmfd9GT0qH7o-wXvTIa7-2" target="Xmfd9GT0qH7o-wXvTIa7-4">
          <mxGeometry relative="1" as="geometry" />
        </mxCell>
        <mxCell id="Xmfd9GT0qH7o-wXvTIa7-20" value="creates" style="endArrow=open;dashed=1;strokeWidth=1;" edge="1" parent="1" source="Xmfd9GT0qH7o-wXvTIa7-1" target="Xmfd9GT0qH7o-wXvTIa7-5">
          <mxGeometry relative="1" as="geometry" />
        </mxCell>
        <mxCell id="Xmfd9GT0qH7o-wXvTIa7-21" value="send/receive" style="endArrow=open;dashed=1;strokeWidth=1;" edge="1" parent="1" source="Xmfd9GT0qH7o-wXvTIa7-3" target="Xmfd9GT0qH7o-wXvTIa7-5">
          <mxGeometry relative="1" as="geometry" />
        </mxCell>
        <mxCell id="Xmfd9GT0qH7o-wXvTIa7-24" value="&lt;h1 style=&quot;margin-top: 0px;&quot;&gt;&lt;span style=&quot;background-color: transparent; color: light-dark(rgb(0, 0, 0), rgb(255, 255, 255));&quot;&gt;MYBank&lt;br&gt;&lt;/span&gt;&lt;span style=&quot;background-color: transparent; color: light-dark(rgb(0, 0, 0), rgb(255, 255, 255)); font-weight: normal;&quot;&gt;&lt;font style=&quot;font-size: 17px;&quot;&gt;Bank Back&amp;nbsp;es un sistema bancario simplificado construido con&amp;nbsp;Java&amp;nbsp;y&amp;nbsp;Spring Boot.&lt;/font&gt;&lt;/span&gt;&lt;/h1&gt;&lt;p&gt;&lt;font style=&quot;font-size: 17px;&quot;&gt;Implementa diferentes tipos de cuentas (Checking,&amp;nbsp;StudentChecking,&amp;nbsp;Savings,&amp;nbsp;CreditCard) y roles de usuario (Admin,&amp;nbsp;AccountHolder,&amp;nbsp;ThirdParty), siguiendo las mejores prácticas de&amp;nbsp;POO con herencia JPA&amp;nbsp;y una base de datos&amp;nbsp;MySQL.&lt;/font&gt;&lt;/p&gt;" style="text;html=1;whiteSpace=wrap;overflow=hidden;rounded=0;" vertex="1" parent="1">
          <mxGeometry x="30" y="30" width="680" height="250" as="geometry" />
        </mxCell>
        <mxCell id="Xmfd9GT0qH7o-wXvTIa7-25" value="Text" style="text;html=1;align=center;verticalAlign=middle;whiteSpace=wrap;rounded=0;" vertex="1" parent="1">
          <mxGeometry x="850" y="460" width="60" height="30" as="geometry" />
        </mxCell>
      </root>
    </mxGraphModel>
  </diagram>
</mxfile>
